<?xml version="1.0" encoding="UTF-8"?>
<svg xmlns="http://www.w3.org/2000/svg" xmlns:xlink="http://www.w3.org/1999/xlink" id="Layer_1" width="5.5in" height="2in" viewBox="0 0 396 144">
  <defs>
    <style>.cls-1{fill:url(#linear-gradient);}.cls-2{fill:#fff;}.cls-3{fill:#1698a4;}</style>
    <linearGradient id="linear-gradient" x1="45.8" y1="96.885" x2="-6.263" y2="147.535" gradientUnits="userSpaceOnUse">
      <stop offset="0" stop-color="#006871"></stop>
      <stop offset=".039" stop-color="#087c86"></stop>
      <stop offset=".083" stop-color="#0e8b97"></stop>
      <stop offset=".132" stop-color="#1195a1"></stop>
      <stop offset=".192" stop-color="#1398a5"></stop>
    </linearGradient>
  </defs>
  <g>
    <g>
      <path class="cls-2" d="M168.567,45.924c-1.723-.234-3.241-.35-4.555-.35-4.788,0-7.927,1.62-9.416,4.861v31.007h-12.657V34.055h11.956l.35,5.65c2.54-4.35,6.058-6.526,10.555-6.526,1.401,0,2.715,.19,3.942,.569l-.175,12.175Z"></path>
      <path class="cls-2" d="M194.047,82.318c-6.949,0-12.606-2.131-16.971-6.394-4.365-4.263-6.547-9.942-6.547-17.037v-1.226c0-4.759,.92-9.015,2.759-12.766,1.839-3.752,4.445-6.642,7.818-8.672,3.372-2.029,7.219-3.044,11.54-3.044,6.482,0,11.584,2.044,15.307,6.131,3.723,4.088,5.584,9.883,5.584,17.387v5.168h-30.175c.409,3.095,1.642,5.577,3.701,7.445s4.664,2.803,7.818,2.803c4.876,0,8.686-1.766,11.431-5.299l6.219,6.964c-1.898,2.686-4.467,4.781-7.708,6.285-3.241,1.504-6.832,2.255-10.774,2.255Zm-1.445-38.935c-2.511,0-4.547,.85-6.11,2.551s-2.562,4.135-3,7.303h17.606v-1.011c-.058-2.818-.818-4.993-2.277-6.533-1.46-1.54-3.533-2.31-6.219-2.31Z"></path>
      <path class="cls-2" d="M232.814,34.055l.394,5.474c3.387-4.234,7.927-6.35,13.621-6.35,5.022,0,8.759,1.474,11.212,4.423,2.453,2.949,3.708,7.358,3.766,13.226v30.613h-12.657v-30.307c0-2.686-.584-4.635-1.752-5.847-1.168-1.212-3.11-1.818-5.825-1.818-3.562,0-6.234,1.518-8.015,4.555v33.416h-12.657V34.055h11.912Z"></path>
      <path class="cls-2" d="M287.442,22.405v11.65h8.102v9.285h-8.102v23.65c0,1.752,.336,3.007,1.007,3.766,.672,.759,1.956,1.139,3.854,1.139,1.401,0,2.642-.102,3.723-.307v9.591c-2.482,.759-5.037,1.139-7.664,1.139-8.876,0-13.402-4.482-13.577-13.445v-25.533h-6.92v-9.285h6.92v-11.65h12.657Z"></path>
      <path class="cls-2" d="M326.12,82.318c-6.949,0-12.606-2.131-16.971-6.394-4.365-4.263-6.547-9.942-6.547-17.037v-1.226c0-4.759,.92-9.015,2.759-12.766,1.839-3.752,4.445-6.642,7.818-8.672,3.372-2.029,7.219-3.044,11.54-3.044,6.482,0,11.584,2.044,15.307,6.131,3.723,4.088,5.584,9.883,5.584,17.387v5.168h-30.175c.409,3.095,1.642,5.577,3.701,7.445s4.664,2.803,7.818,2.803c4.876,0,8.686-1.766,11.431-5.299l6.219,6.964c-1.898,2.686-4.467,4.781-7.708,6.285-3.241,1.504-6.832,2.255-10.774,2.255Zm-1.445-38.935c-2.511,0-4.547,.85-6.11,2.551-1.562,1.701-2.562,4.135-3,7.303h17.606v-1.011c-.058-2.818-.818-4.993-2.277-6.533-1.46-1.54-3.533-2.31-6.219-2.31Z"></path>
      <path class="cls-2" d="M378.807,45.924c-1.723-.234-3.241-.35-4.555-.35-4.788,0-7.927,1.62-9.416,4.861v31.007h-12.657V34.055h11.956l.35,5.65c2.54-4.35,6.058-6.526,10.555-6.526,1.401,0,2.715,.19,3.942,.569l-.175,12.175Z"></path>
      <path class="cls-2" d="M84.445,82.318c-6.949,0-12.606-2.131-16.971-6.394-4.365-4.263-6.547-9.942-6.547-17.037v-1.226c0-4.759,.92-9.015,2.759-12.766,1.839-3.752,4.445-6.642,7.818-8.672,3.372-2.029,7.219-3.044,11.54-3.044,6.482,0,11.584,2.044,15.307,6.131s5.584,9.883,5.584,17.387v5.168h-30.175c.409,3.095,1.642,5.577,3.701,7.445,2.058,1.869,4.664,2.803,7.818,2.803,4.876,0,8.686-1.766,11.431-5.299l6.219,6.964c-1.898,2.686-4.467,4.781-7.708,6.285-3.241,1.504-6.832,2.255-10.774,2.255Zm-1.445-38.935c-2.511,0-4.547,.85-6.11,2.551-1.562,1.701-2.562,4.135-3,7.303h17.606v-1.011c-.058-2.818-.818-4.993-2.277-6.533-1.46-1.54-3.533-2.31-6.219-2.31Z"></path>
    </g>
    <path class="cls-1" d="M47.041,86.535c-.645-.645-1.69-.645-2.335,0l-7.639,7.64L6.736,124.506c-3.051,3.051-3.051,7.997,0,11.048h0c3.051,3.051,7.997,3.051,11.048,0l30.604-30.604,7.366-7.366c.645-.645,.645-1.69,0-2.335l-8.713-8.713Z"></path>
    <path class="cls-3" d="M82.416,108.559c-13.677,0-26.537-5.326-36.212-15.001-19.968-19.968-19.968-52.46,0-72.428C66.172,1.171,98.664,1.163,118.632,21.131c9.675,9.675,15.001,22.535,15.001,36.212s-5.326,26.541-15.001,36.216c-9.675,9.675-22.535,15.001-36.216,15.001Zm.004-88.737c-9.618,0-19.228,3.659-26.549,10.976-14.638,14.638-14.638,38.455,0,53.093,14.642,14.638,38.451,14.631,53.093,0,14.638-14.638,14.638-38.455,0-53.093-7.317-7.317-16.935-10.976-26.545-10.976Z"></path>
    <g>
      <path class="cls-2" d="M386.235,23.707c-2.932,0-5.318,2.383-5.318,5.312s2.386,5.318,5.318,5.318,5.318-2.385,5.318-5.318-2.386-5.312-5.318-5.312Zm3.943,5.312c0,2.177-1.768,3.949-3.943,3.949s-3.949-1.772-3.949-3.949,1.771-3.943,3.949-3.943,3.943,1.768,3.943,3.943Z"></path>
      <path class="cls-2" d="M388.673,28.348c0-1.108-.826-1.793-2.141-1.793h-2.136v4.934h1.141v-1.371h1.052l.948,1.371h1.225l-1.103-1.587c.638-.272,1.014-.817,1.014-1.554Zm-2.206,.859h-.929v-1.723h.929c.699,0,1.052,.319,1.052,.864,0,.535-.352,.859-1.052,.859Z"></path>
    </g>
  </g>
  <g>
    <g>
      <g>
        <path class="cls-2" d="M252.752,109.884h2.569c.525,0,1.013-.044,1.464-.135,.451-.091,.845-.237,1.184-.44,.338-.202,.605-.466,.8-.788,.194-.323,.293-.724,.293-1.206s-.098-.882-.293-1.205c-.195-.323-.455-.583-.777-.778-.323-.195-.702-.334-1.138-.417-.436-.082-.894-.124-1.374-.124h-2.727v5.092Zm0,8.969h-2.231v-15.955h5.115c.766,0,1.494,.079,2.186,.237,.691,.158,1.296,.409,1.815,.755,.518,.346,.927,.8,1.228,1.363,.3,.563,.451,1.25,.451,2.062,0,1.172-.361,2.118-1.082,2.839-.721,.721-1.653,1.18-2.794,1.374l4.462,7.324h-2.705l-4.056-7.099h-2.388v7.099Z"></path>
        <path class="cls-2" d="M271.795,112.566c-.015-.42-.087-.815-.214-1.183-.128-.368-.316-.688-.563-.958-.249-.27-.556-.484-.924-.642-.369-.158-.8-.237-1.296-.237-.45,0-.876,.078-1.274,.237-.398,.158-.744,.372-1.037,.642-.293,.27-.533,.59-.721,.958-.189,.368-.297,.763-.327,1.183h6.355Zm2.163,.857v.36c0,.121-.008,.241-.022,.361h-8.495c.014,.448,.116,.869,.304,1.265,.188,.395,.44,.739,.755,1.03,.316,.29,.68,.518,1.093,.683,.413,.164,.852,.246,1.318,.246,.721,0,1.344-.158,1.87-.473,.526-.315,.939-.698,1.24-1.149l1.487,1.194c-.571,.757-1.243,1.314-2.017,1.672-.774,.358-1.634,.536-2.58,.536-.812,0-1.563-.135-2.253-.406-.691-.27-1.285-.649-1.781-1.138-.495-.488-.887-1.078-1.171-1.769-.286-.691-.428-1.457-.428-2.299,0-.826,.139-1.589,.417-2.287,.278-.698,.666-1.296,1.163-1.791,.497-.496,1.084-.882,1.762-1.16,.677-.278,1.407-.417,2.19-.417s1.494,.128,2.134,.383c.64,.255,1.182,.624,1.626,1.104,.444,.48,.786,1.063,1.027,1.746,.241,.684,.361,1.454,.361,2.31"></path>
        <path class="cls-2" d="M282.656,110.876c-.24-.391-.578-.71-1.014-.958-.436-.247-.924-.372-1.465-.372-.241,0-.481,.026-.721,.079-.241,.053-.455,.135-.642,.248-.189,.112-.338,.255-.451,.428-.113,.172-.169,.387-.169,.642,0,.451,.203,.785,.608,1.002,.405,.218,1.014,.416,1.825,.597,.511,.121,.984,.263,1.42,.428,.436,.165,.815,.372,1.138,.619,.323,.248,.574,.545,.755,.891,.18,.345,.271,.751,.271,1.217,0,.63-.121,1.164-.361,1.6-.241,.436-.56,.793-.957,1.071-.398,.278-.853,.477-1.363,.597-.511,.12-1.037,.18-1.578,.18-.811,0-1.604-.158-2.377-.473-.774-.316-1.416-.796-1.927-1.443l1.51-1.285c.285,.421,.679,.774,1.183,1.059,.503,.286,1.055,.428,1.657,.428,.27,0,.529-.026,.777-.078,.248-.053,.473-.139,.676-.259,.203-.121,.364-.278,.485-.474,.12-.195,.18-.443,.18-.744,0-.495-.237-.863-.71-1.104-.473-.241-1.168-.466-2.084-.676-.361-.091-.725-.2-1.093-.327-.369-.128-.703-.305-1.003-.53-.301-.225-.545-.507-.733-.845-.188-.338-.282-.755-.282-1.251,0-.571,.116-1.062,.349-1.476,.233-.413,.538-.751,.913-1.014,.375-.263,.804-.458,1.285-.586,.481-.128,.977-.192,1.487-.192,.766,0,1.506,.15,2.22,.45,.714,.301,1.266,.736,1.657,1.307l-1.465,1.24Z"></path>
        <path class="cls-2" d="M289.033,118.854h-2.118v-10.681h2.118v10.681Zm.338-14.535c0,.391-.138,.714-.413,.969-.276,.256-.607,.383-.995,.383s-.715-.131-.983-.394c-.269-.263-.402-.582-.402-.958,0-.39,.134-.717,.402-.98,.268-.263,.596-.394,.983-.394s.719,.131,.995,.394c.275,.263,.413,.59,.413,.98"></path>
        <path class="cls-2" d="M294.216,113.501c0,.495,.075,.974,.225,1.438,.15,.464,.375,.877,.676,1.236,.301,.359,.669,.648,1.104,.865,.436,.217,.947,.325,1.532,.325,.541,0,1.033-.105,1.476-.314,.443-.21,.823-.491,1.138-.843,.315-.352,.56-.76,.733-1.225,.173-.464,.259-.95,.259-1.46s-.086-.996-.259-1.46c-.172-.464-.417-.877-.733-1.236-.315-.359-.695-.644-1.138-.853-.443-.21-.934-.316-1.476-.316-.585,0-1.097,.105-1.532,.316-.436,.209-.804,.494-1.104,.853-.3,.36-.526,.772-.676,1.236-.15,.464-.225,.943-.225,1.437m7.031,3.662c-.406,.647-.957,1.138-1.657,1.476-.699,.338-1.431,.507-2.197,.507-.827,0-1.571-.147-2.231-.439-.661-.293-1.225-.695-1.69-1.206-.465-.511-.826-1.112-1.081-1.803-.256-.691-.383-1.427-.383-2.208s.127-1.513,.383-2.197c.255-.684,.62-1.281,1.093-1.792,.473-.51,1.04-.908,1.701-1.194,.661-.285,1.39-.428,2.186-.428,.871,0,1.63,.184,2.276,.552,.645,.368,1.156,.814,1.532,1.34h.045v-7.955h2.118v17.037h-2.051v-1.69h-.044Z"></path>
        <path class="cls-2" d="M314.858,112.566c-.015-.42-.087-.815-.214-1.183-.128-.368-.316-.688-.563-.958-.248-.27-.556-.484-.924-.642-.369-.158-.8-.237-1.296-.237-.45,0-.876,.078-1.274,.237-.398,.158-.744,.372-1.037,.642-.293,.27-.533,.59-.721,.958-.189,.368-.297,.763-.327,1.183h6.355Zm2.163,.857v.36c0,.121-.008,.241-.022,.361h-8.496c.015,.448,.117,.869,.304,1.265,.188,.395,.44,.739,.755,1.03,.316,.29,.679,.518,1.093,.683,.413,.164,.852,.246,1.318,.246,.721,0,1.345-.158,1.87-.473,.526-.315,.939-.698,1.24-1.149l1.487,1.194c-.571,.757-1.243,1.314-2.017,1.672-.774,.358-1.634,.536-2.581,.536-.811,0-1.562-.135-2.253-.406-.691-.27-1.284-.649-1.78-1.138-.495-.488-.887-1.078-1.171-1.769-.286-.691-.428-1.457-.428-2.299,0-.826,.139-1.589,.417-2.287,.278-.698,.666-1.296,1.163-1.791,.497-.496,1.084-.882,1.762-1.16,.677-.278,1.407-.417,2.19-.417s1.494,.128,2.134,.383c.64,.255,1.182,.624,1.626,1.104,.444,.48,.786,1.063,1.027,1.746,.241,.684,.361,1.454,.361,2.31"></path>
        <path class="cls-2" d="M321.867,108.172c.03,.27,.053,.574,.068,.912,.014,.339,.022,.62,.022,.845h.068c.136-.285,.319-.552,.552-.8,.232-.247,.499-.465,.8-.654,.3-.188,.63-.334,.991-.439,.361-.106,.736-.158,1.127-.158,.691,0,1.285,.116,1.781,.35,.496,.233,.909,.544,1.239,.935,.331,.391,.575,.849,.733,1.374,.158,.526,.236,1.09,.236,1.69v6.625h-2.118v-5.927c0-.436-.034-.849-.101-1.24-.068-.39-.191-.735-.372-1.036-.181-.301-.428-.541-.744-.721-.315-.18-.721-.271-1.217-.271-.842,0-1.529,.32-2.062,.958-.534,.638-.8,1.491-.8,2.557v5.679h-2.119v-8.383c0-.286-.008-.653-.022-1.104-.015-.451-.038-.849-.067-1.194h2.006Z"></path>
        <path class="cls-2" d="M338.294,109.907h-2.839v5.549c0,.644,.12,1.105,.361,1.382,.24,.277,.623,.416,1.149,.416,.195,0,.406-.021,.632-.062,.225-.042,.427-.103,.608-.186l.067,1.735c-.256,.091-.538,.161-.845,.214-.308,.053-.627,.079-.957,.079-1.007,0-1.777-.278-2.31-.834-.533-.555-.8-1.389-.8-2.501v-5.791h-2.051v-1.735h2.051v-3.065h2.096v3.065h2.839v1.735Z"></path>
      </g>
      <rect class="cls-2" x="340.3" y="102.898" width="3.876" height="15.955"></rect>
      <path class="cls-2" d="M359.792,110.719c0-.691-.109-1.329-.327-1.915-.218-.586-.526-1.089-.924-1.51-.399-.421-.875-.748-1.432-.981-.555-.232-1.164-.349-1.825-.349-.646,0-1.243,.117-1.791,.349-.549,.233-1.025,.56-1.431,.981-.405,.421-.721,.924-.946,1.51-.225,.586-.338,1.224-.338,1.915,0,.721,.109,1.379,.327,1.972,.218,.594,.525,1.104,.924,1.532,.398,.428,.871,.759,1.42,.992,.549,.233,1.153,.349,1.815,.349,.645,0,1.246-.116,1.803-.349,.555-.233,1.037-.564,1.442-.992,.406-.428,.721-.939,.946-1.532,.225-.593,.338-1.251,.338-1.972m-4.642,8.135c-1.262,0-2.419-.18-3.47-.541-1.052-.361-1.949-.891-2.693-1.589-.744-.698-1.322-1.555-1.735-2.569-.413-1.015-.62-2.175-.62-3.482,0-1.217,.218-2.328,.654-3.335,.436-1.007,1.04-1.87,1.814-2.592,.774-.721,1.69-1.281,2.75-1.679,1.059-.398,2.204-.597,3.436-.597s2.374,.199,3.426,.597c1.052,.398,1.96,.955,2.727,1.668,.766,.714,1.363,1.57,1.792,2.569,.428,.999,.642,2.1,.642,3.301,0,.616-.068,1.19-.203,1.724-.135,.533-.315,1.018-.541,1.453-.225,.436-.481,.823-.767,1.161-.286,.338-.571,.62-.856,.845v.067l3.358-.067v3.065h-9.713Z"></path>
      <path class="cls-2" d="M223.048,118.703c.653,.319,1.441,.047,1.76-.606,.319-.653,.047-1.441-.606-1.759-.653-.319-1.441-.047-1.76,.606-.318,.653-.047,1.441,.606,1.76"></path>
      <path class="cls-2" d="M219.942,115.282c.817,.398,1.801,.059,2.2-.757,.398-.817,.059-1.802-.758-2.2-.816-.398-1.801-.059-2.2,.758-.398,.816-.059,1.801,.758,2.2"></path>
      <path class="cls-2" d="M218.534,110.151c1.021,.498,2.252,.074,2.75-.947,.498-1.021,.074-2.252-.947-2.75-1.021-.498-2.252-.074-2.75,.947-.498,1.021-.074,2.252,.947,2.75"></path>
      <path class="cls-2" d="M219.927,104.133c1.276,.622,2.815,.092,3.437-1.184,.622-1.276,.092-2.815-1.184-3.437-1.276-.622-2.815-.092-3.437,1.184-.622,1.276-.092,2.815,1.184,3.437"></path>
      <path class="cls-2" d="M224.742,98.558c1.595,.778,3.518,.115,4.296-1.48,.778-1.595,.116-3.518-1.479-4.296s-3.518-.115-4.296,1.48c-.778,1.595-.116,3.518,1.479,4.296"></path>
      <path class="cls-2" d="M232.996,95.635c1.994,.972,4.398,.144,5.371-1.85,.972-1.994,.144-4.398-1.85-5.37-1.994-.972-4.398-.144-5.371,1.849-.972,1.994-.144,4.398,1.85,5.371"></path>
      <path class="cls-2" d="M234.874,111.064c-.712,0-1.29-.577-1.29-1.29s.577-1.29,1.29-1.29,1.29,.577,1.29,1.29-.577,1.29-1.29,1.29m11.53-4.312l-11.064-8.783c-.12-.095-.269-.147-.422-.147h-.088c-.153,0-.302,.052-.422,.147l-11.064,8.783c-.226,.179-.314,.483-.219,.755,.095,.273,.352,.455,.641,.455h2.957v8.923c0,1.249,1.013,2.262,2.262,2.262h4.315v-5.899c0-.696,.564-1.26,1.26-1.26h.63c.696,0,1.26,.564,1.26,1.26v5.899h4.315c1.249,0,2.262-1.013,2.262-2.262v-8.923h2.957c.289,0,.546-.183,.641-.455,.095-.272,.007-.576-.219-.755"></path>
      <path class="cls-2" d="M242.97,100.568c2.492,1.215,5.498,.18,6.713-2.312,1.215-2.492,.18-5.498-2.312-6.713-2.492-1.215-5.498-.18-6.713,2.312-1.215,2.492-.18,5.498,2.312,6.713"></path>
    </g>
    <g>
      <path class="cls-2" d="M194.574,105.357h1.592v6.196h.037c.281-.437,.688-.781,1.222-1.035,.529-.254,1.096-.381,1.698-.381,.649,0,1.236,.111,1.763,.336,.525,.224,.972,.534,1.344,.93,.37,.396,.656,.862,.857,1.398,.201,.537,.302,1.118,.302,1.744s-.101,1.204-.302,1.734c-.201,.532-.487,.998-.857,1.399-.372,.402-.82,.714-1.344,.938-.527,.225-1.115,.336-1.763,.336-.567,0-1.117-.123-1.655-.371-.536-.248-.96-.596-1.264-1.044h-.037v1.204h-1.592v-13.383Zm4.355,12.108c.426,0,.808-.074,1.152-.221,.342-.148,.63-.348,.866-.602,.234-.253,.417-.56,.548-.92,.131-.359,.197-.753,.197-1.177s-.066-.817-.197-1.178c-.131-.359-.314-.666-.548-.92-.236-.254-.525-.454-.866-.602-.344-.148-.726-.221-1.152-.221s-.81,.074-1.152,.221-.63,.348-.866,.602-.419,.561-.548,.92c-.131,.361-.197,.753-.197,1.178s.066,.817,.197,1.177c.129,.361,.311,.667,.548,.92,.236,.254,.525,.454,.866,.602s.726,.221,1.152,.221Z"></path>
      <path class="cls-2" d="M203.921,110.349h1.84l2.484,6.549h.035l2.384-6.549h1.7l-3.983,10.196c-.143,.366-.288,.7-.443,1.001-.15,.301-.333,.557-.543,.769-.213,.213-.468,.378-.768,.496-.3,.117-.667,.177-1.103,.177-.234,0-.473-.015-.714-.044-.239-.029-.473-.091-.695-.186l.194-1.452c.314,.13,.632,.196,.948,.196,.246,0,.454-.033,.625-.097,.169-.066,.316-.159,.44-.283,.122-.124,.225-.269,.307-.434s.164-.354,.246-.567l.515-1.328-3.47-8.444Z"></path>
    </g>
  </g>
</svg>
