<?xml version="1.0" encoding="utf-8"?>
<!-- Generator: Adobe Illustrator 26.1.0, SVG Export Plug-In . SVG Version: 6.00 Build 0)  -->
<svg version="1.1" id="Layer_1" xmlns="http://www.w3.org/2000/svg" xmlns:xlink="http://www.w3.org/1999/xlink" x="0px" y="0px"
	 viewBox="0 0 85 85" style="enable-background:new 0 0 85 85;" xml:space="preserve">
<style type="text/css">
	.st0{fill:#6BB98E;}
	.st1{fill:#FFF287;}
	.st2{fill:#578BB5;}
</style>
<g>
	<rect x="13.19" y="23.88" class="st0" width="36.14" height="6.67"/>
	<rect x="13.19" y="34.1" class="st0" width="36.14" height="6.67"/>
	<rect x="13.19" y="44.32" class="st1" width="36.14" height="6.67"/>
	
		<rect x="66.66" y="62.11" transform="matrix(0.7071 -0.7071 0.7071 0.7071 -30.8907 70.735)" class="st2" width="6.55" height="21.08"/>
	<path d="M55.33,75.69c-10.18,0-18.44-8.25-18.44-18.43c0-10.18,8.25-18.44,18.43-18.44c10.18,0,18.44,8.25,18.44,18.43
		c0,0,0,0.01,0,0.01C73.75,67.44,65.51,75.68,55.33,75.69z M55.33,40.24c-9.4,0-17.03,7.62-17.04,17.02
		c0,9.4,7.62,17.03,17.02,17.04s17.03-7.62,17.04-17.02c0,0,0,0,0-0.01C72.34,47.87,64.73,40.25,55.33,40.24z"/>
	<path d="M81,61.01H4V2.57h77V61.01z M5.41,59.6h74.19V3.98H5.41L5.41,59.6z"/>
	<rect x="4.7" y="14.22" width="75.59" height="1.41"/>
	<path d="M11.67,11.06c-1.23,0-2.22-0.99-2.23-2.21c0-1.23,0.99-2.22,2.21-2.23c1.23,0,2.22,0.99,2.23,2.21c0,0,0,0,0,0.01
		C13.88,10.07,12.9,11.06,11.67,11.06z M11.67,8.03c-0.45,0-0.82,0.36-0.82,0.81c0,0.45,0.36,0.82,0.81,0.82
		c0.45,0,0.82-0.36,0.82-0.81c0,0,0-0.01,0-0.01C12.48,8.4,12.12,8.03,11.67,8.03L11.67,8.03z"/>
	<path d="M19.59,11.06c-1.23,0-2.22-0.99-2.23-2.21c0-1.23,0.99-2.22,2.21-2.23c1.23,0,2.22,0.99,2.23,2.21c0,0,0,0,0,0.01
		C21.8,10.07,20.81,11.06,19.59,11.06z M19.59,8.03c-0.45,0-0.82,0.36-0.82,0.81c0,0.45,0.36,0.82,0.81,0.82
		c0.45,0,0.82-0.36,0.82-0.81c0,0,0-0.01,0-0.01C20.4,8.4,20.03,8.03,19.59,8.03L19.59,8.03z"/>
	<path d="M27.47,11.06c-1.23,0-2.22-0.99-2.23-2.21c0-1.23,0.99-2.22,2.21-2.23c1.23,0,2.22,0.99,2.23,2.21c0,0,0,0,0,0.01
		C29.68,10.07,28.7,11.06,27.47,11.06z M27.47,8.03c-0.45,0-0.82,0.36-0.82,0.81c0,0.45,0.36,0.82,0.81,0.82
		c0.45,0,0.82-0.36,0.82-0.81c0,0,0-0.01,0-0.01C28.28,8.4,27.92,8.03,27.47,8.03L27.47,8.03z"/>
</g>
</svg>
