<?xml version="1.0" encoding="utf-8"?>
<!-- Generator: Adobe Illustrator 26.1.0, SVG Export Plug-In . SVG Version: 6.00 Build 0)  -->
<svg version="1.1" id="Layer_1" xmlns="http://www.w3.org/2000/svg" xmlns:xlink="http://www.w3.org/1999/xlink" x="0px" y="0px"
	 viewBox="0 0 85 85" style="enable-background:new 0 0 85 85;" xml:space="preserve">
<style type="text/css">
	.st0{display:none;}
	.st1{display:inline;fill:#6BB98E;}
	.st2{display:inline;fill:#578BB5;}
	.st3{display:inline;}
	.st4{fill:#FFF287;}
	.st5{fill:#6BB98E;}
	.st6{fill:#578BB5;}
</style>
<g class="st0">
	<rect x="-108.43" y="27.84" class="st1" width="21.88" height="8.4"/>
	<rect x="-108.43" y="38.14" class="st1" width="21.88" height="8.4"/>
	
		<rect x="-62.79" y="45.03" transform="matrix(0.7071 -0.7071 0.7071 0.7071 -62.6897 -20.8407)" class="st2" width="12.57" height="40.45"/>
	<path class="st3" d="M-84.52,70.44c-19.18,0-34.72-15.55-34.72-34.72S-103.7,1-84.52,1C-65.35,1-49.8,16.55-49.8,35.72
		C-49.83,54.89-65.36,70.42-84.52,70.44z M-84.52,2.42c-18.39,0-33.3,14.91-33.3,33.3s14.91,33.3,33.3,33.3s33.3-14.91,33.3-33.3
		C-51.24,17.34-66.14,2.43-84.52,2.42L-84.52,2.42z"/>
	<path class="st3" d="M-84.52,26.71c-4.66,0-8.44-3.78-8.44-8.44s3.78-8.44,8.44-8.44s8.44,3.78,8.44,8.44l0,0
		C-76.09,22.93-79.87,26.7-84.52,26.71z M-84.52,11.25c-3.88,0-7.02,3.14-7.02,7.02s3.14,7.02,7.02,7.02s7.02-3.14,7.02-7.02v0
		C-77.51,14.39-80.65,11.25-84.52,11.25L-84.52,11.25z"/>
	<path class="st3" d="M-69.18,59.21h-1.42V37.09c0-2.97-2.41-5.38-5.38-5.39H-92c-2.97,0-5.38,2.41-5.38,5.39v22.12h-1.42V37.09
		c0-3.75,3.04-6.8,6.8-6.8h16.03c3.75,0,6.8,3.05,6.8,6.8L-69.18,59.21z"/>
	<rect x="-93.03" y="39.3" class="st3" width="1.42" height="19.9"/>
	<rect x="-76.36" y="39.3" class="st3" width="1.42" height="19.9"/>
</g>
<g>
	<circle class="st4" cx="18.61" cy="16.94" r="13.32"/>
	
		<rect x="38.87" y="66.43" transform="matrix(0.7071 -0.7071 0.7071 0.7071 -35.2848 56.9513)" class="st5" width="24.47" height="9.28"/>
	<rect x="47.75" y="7.71" class="st6" width="9.28" height="21.48"/>
	<path d="M45.91,81.8H34.35l0.04-8.83l18.03-18c-1.45-4.88-0.1-10.17,3.52-13.76l0,0c5.44-5.44,14.25-5.45,19.7-0.01
		c5.44,5.44,5.45,14.25,0.01,19.7c-3.6,3.61-8.89,4.96-13.78,3.52l-6.07,6.07h-4.75v5.13h-5.13V81.8z M35.62,80.52h9.01V74.3h5.13
		v-5.13h5.5l6.24-6.24l0.37,0.12c6.65,2.16,13.79-1.48,15.94-8.13c2.16-6.65-1.48-13.79-8.13-15.94c-4.52-1.47-9.49-0.27-12.85,3.09
		l0,0c-3.37,3.36-4.57,8.33-3.09,12.85l0.12,0.37l-18.2,18.2L35.62,80.52z"/>
	<path d="M65.62,69.91H33.68V52.19c0-3.59-2.91-6.51-6.5-6.51c-3.59,0-6.51,2.91-6.51,6.5c0,0,0,0,0,0v17.72H6.87V27.68L36.24,2
		l29.38,25.68V69.91z M34.96,68.64h29.39V28.26L36.24,3.69L8.15,28.26v40.38H19.4V52.19c0-4.3,3.48-7.78,7.78-7.78
		s7.78,3.48,7.78,7.78c0,0,0,0,0,0L34.96,68.64z"/>
</g>
</svg>
