<?xml version="1.0" encoding="utf-8"?>
<!-- Generator: Adobe Illustrator 26.1.0, SVG Export Plug-In . SVG Version: 6.00 Build 0)  -->
<svg version="1.1" id="Layer_1" xmlns="http://www.w3.org/2000/svg" xmlns:xlink="http://www.w3.org/1999/xlink" x="0px" y="0px"
	 viewBox="0 0 85 85" style="enable-background:new 0 0 85 85;" xml:space="preserve">
<style type="text/css">
	.st0{fill:#6BB98E;}
	.st1{fill:#578BB5;}
</style>
<g>
	<rect x="12.57" y="27.84" class="st0" width="21.88" height="8.4"/>
	<rect x="12.57" y="38.14" class="st0" width="21.88" height="8.4"/>
	
		<rect x="58.21" y="45.03" transform="matrix(0.7071 -0.7071 0.7071 0.7071 -27.2496 64.7192)" class="st1" width="12.57" height="40.45"/>
	<path d="M36.48,70.44C17.3,70.44,1.75,54.9,1.75,35.72C1.75,16.55,17.3,1,36.48,1C55.65,1,71.2,16.55,71.2,35.72
		C71.17,54.89,55.64,70.42,36.48,70.44z M36.48,2.42c-18.39,0-33.3,14.91-33.3,33.3s14.91,33.3,33.3,33.3s33.3-14.91,33.3-33.3
		C69.76,17.34,54.86,2.43,36.48,2.42L36.48,2.42z"/>
	<path d="M36.48,26.71c-4.66,0-8.44-3.78-8.44-8.44s3.78-8.44,8.44-8.44s8.44,3.78,8.44,8.44l0,0
		C44.91,22.93,41.13,26.7,36.48,26.71z M36.48,11.25c-3.88,0-7.02,3.14-7.02,7.02s3.14,7.02,7.02,7.02s7.02-3.14,7.02-7.02v0
		C43.49,14.39,40.35,11.25,36.48,11.25L36.48,11.25z"/>
	<path d="M51.82,59.21h-1.42V37.09c0-2.97-2.41-5.38-5.38-5.39H29c-2.97,0-5.38,2.41-5.38,5.39v22.12H22.2V37.09
		c0-3.75,3.04-6.8,6.8-6.8h16.03c3.75,0,6.8,3.05,6.8,6.8L51.82,59.21z"/>
	<rect x="27.97" y="39.3" width="1.42" height="19.9"/>
	<rect x="44.64" y="39.3" width="1.42" height="19.9"/>
</g>
</svg>
